HIERARCHY
ROOT Hips
{
  OFFSET 5.84602e-005 68.8428 3.50346
  CHANNELS 6 Xposition Yposition Zposition Zrotation Xrotation Yrotation
  JOINT Spine
  {
    OFFSET 0 8.597 -4.6522
    CHANNELS 3 Zrotation Xrotation Yrotation
    JOINT Spine1
    {
      OFFSET 0 7.8454 0.4098
      CHANNELS 3 Zrotation Xrotation Yrotation
      JOINT Spine2
      {
        OFFSET 0 9.7078 -2.1609
        CHANNELS 3 Zrotation Xrotation Yrotation
        JOINT Neck
        {
          OFFSET 0 21.8761 -0.4549
          CHANNELS 3 Zrotation Xrotation Yrotation
          JOINT Head
          {
            OFFSET 0 12.3537 3.3602
            CHANNELS 3 Zrotation Xrotation Yrotation
            End Site
            {
              OFFSET 0.0001 18.9506 0.5657
            }
          }
        }
        JOINT LeftShoulder
        {
          OFFSET 2.2086 21.1115 7.2329
          CHANNELS 3 Zrotation Xrotation Yrotation
          JOINT LeftArm
          {
            OFFSET 13.1193 3.0282 -4.8998
            CHANNELS 3 Zrotation Xrotation Yrotation
            JOINT LeftForeArm
            {
              OFFSET 27.4081 -0.0973053 -0.2375
              CHANNELS 3 Zrotation Xrotation Yrotation
              JOINT LeftHand
              {
                OFFSET 22.8641 0.0662994 -0.1369
                CHANNELS 3 Zrotation Xrotation Yrotation
                JOINT LeftHandIndex1
                {
                  OFFSET 8.8614 0.775009 2.4612
                  CHANNELS 3 Zrotation Xrotation Yrotation
                  JOINT LeftHandIndex2
                  {
                    OFFSET 3.3146 -0.808304 0.5841
                    CHANNELS 3 Zrotation Xrotation Yrotation
                    JOINT LeftHandIndex3
                    {
                      OFFSET 2.2628 -0.552002 0.3989
                      CHANNELS 3 Zrotation Xrotation Yrotation
                      End Site
                      {
                        OFFSET 1.6102 -0.4807 0.2612
                      }
                    }
                  }
                }
                JOINT LeftHandMiddle1
                {
                  OFFSET 8.9937 0.895004 0.2143
                  CHANNELS 3 Zrotation Xrotation Yrotation
                  JOINT LeftHandMiddle2
                  {
                    OFFSET 4.0984 0.0113983 -0.0242
                    CHANNELS 3 Zrotation Xrotation Yrotation
                    JOINT LeftHandMiddle3
                    {
                      OFFSET 2.2716 0.00689697 -0.0138001
                      CHANNELS 3 Zrotation Xrotation Yrotation
                      End Site
                      {
                        OFFSET 2.0404 -0.1441 0.0027
                      }
                    }
                  }
                }
                JOINT LeftHandRing1
                {
                  OFFSET 8.5234 0.597198 -2.0164
                  CHANNELS 3 Zrotation Xrotation Yrotation
                  JOINT LeftHandRing2
                  {
                    OFFSET 3.7188 -0.188293 -0.2328
                    CHANNELS 3 Zrotation Xrotation Yrotation
                    JOINT LeftHandRing3
                    {
                      OFFSET 2.1191 -0.106598 -0.1332
                      CHANNELS 3 Zrotation Xrotation Yrotation
                      End Site
                      {
                        OFFSET 1.8737 -0.2304 -0.0886
                      }
                    }
                  }
                }
                JOINT LeftHandPinky1
                {
                  OFFSET 7.9094 -0.601089 -3.4825
                  CHANNELS 3 Zrotation Xrotation Yrotation
                  JOINT LeftHandPinky2
                  {
                    OFFSET 2.2874 -0.477005 -0.6314
                    CHANNELS 3 Zrotation Xrotation Yrotation
                    JOINT LeftHandPinky3
                    {
                      OFFSET 1.6774 -0.349396 -0.4633
                      CHANNELS 3 Zrotation Xrotation Yrotation
                      End Site
                      {
                        OFFSET 1.4888 -0.4091 -0.3416
                      }
                    }
                  }
                }
                JOINT LeftHandThumb1
                {
                  OFFSET 1.833 -1.3875 1.3896
                  CHANNELS 3 Zrotation Xrotation Yrotation
                  JOINT LeftHandThumb2
                  {
                    OFFSET 3.4129 -1.121 2.5732
                    CHANNELS 3 Zrotation Xrotation Yrotation
                    JOINT LeftHandThumb3
                    {
                      OFFSET 2.2474 -0.804199 1.6192
                      CHANNELS 3 Zrotation Xrotation Yrotation
                      End Site
                      {
                        OFFSET 1.6527 -0.5689 1.1317
                      }
                    }
                  }
                }
              }
            }
          }
        }
        JOINT RightShoulder
        {
          OFFSET -2.2086 21.1115 7.2329
          CHANNELS 3 Zrotation Xrotation Yrotation
          JOINT RightArm
          {
            OFFSET -13.1216 3.0287 -4.9007
            CHANNELS 3 Zrotation Xrotation Yrotation
            JOINT RightForeArm
            {
              OFFSET -27.4081 -0.0973053 -0.2375
              CHANNELS 3 Zrotation Xrotation Yrotation
              JOINT RightHand
              {
                OFFSET -22.8641 0.0664063 -0.1369
                CHANNELS 3 Zrotation Xrotation Yrotation
                JOINT RightHandIndex1
                {
                  OFFSET -8.8614 0.774994 2.4612
                  CHANNELS 3 Zrotation Xrotation Yrotation
                  JOINT RightHandIndex2
                  {
                    OFFSET -3.3146 -0.808304 0.5841
                    CHANNELS 3 Zrotation Xrotation Yrotation
                    JOINT RightHandIndex3
                    {
                      OFFSET -2.2628 -0.552002 0.3989
                      CHANNELS 3 Zrotation Xrotation Yrotation
                      End Site
                      {
                        OFFSET -1.6102 -0.4807 0.2612
                      }
                    }
                  }
                }
                JOINT RightHandMiddle1
                {
                  OFFSET -8.9937 0.894989 0.2143
                  CHANNELS 3 Zrotation Xrotation Yrotation
                  JOINT RightHandMiddle2
                  {
                    OFFSET -4.0984 0.0113983 -0.0242
                    CHANNELS 3 Zrotation Xrotation Yrotation
                    JOINT RightHandMiddle3
                    {
                      OFFSET -2.2716 0.00691223 -0.0138001
                      CHANNELS 3 Zrotation Xrotation Yrotation
                      End Site
                      {
                        OFFSET -2.0404 -0.1441 0.0027
                      }
                    }
                  }
                }
                JOINT RightHandRing1
                {
                  OFFSET -8.5234 0.597198 -2.0164
                  CHANNELS 3 Zrotation Xrotation Yrotation
                  JOINT RightHandRing2
                  {
                    OFFSET -3.7188 -0.188309 -0.2328
                    CHANNELS 3 Zrotation Xrotation Yrotation
                    JOINT RightHandRing3
                    {
                      OFFSET -2.1191 -0.106598 -0.1332
                      CHANNELS 3 Zrotation Xrotation Yrotation
                      End Site
                      {
                        OFFSET -1.8737 -0.2304 -0.0886
                      }
                    }
                  }
                }
                JOINT RightHandPinky1
                {
                  OFFSET -7.9094 -0.601105 -3.4825
                  CHANNELS 3 Zrotation Xrotation Yrotation
                  JOINT RightHandPinky2
                  {
                    OFFSET -2.2874 -0.477005 -0.6314
                    CHANNELS 3 Zrotation Xrotation Yrotation
                    JOINT RightHandPinky3
                    {
                      OFFSET -1.6774 -0.349396 -0.4633
                      CHANNELS 3 Zrotation Xrotation Yrotation
                      End Site
                      {
                        OFFSET -1.4888 -0.4091 -0.3416
                      }
                    }
                  }
                }
                JOINT RightHandThumb1
                {
                  OFFSET -1.833 -1.38751 1.3896
                  CHANNELS 3 Zrotation Xrotation Yrotation
                  JOINT RightHandThumb2
                  {
                    OFFSET -3.41299 -1.12099 2.5732
                    CHANNELS 3 Zrotation Xrotation Yrotation
                    JOINT RightHandThumb3
                    {
                      OFFSET -2.24741 -0.804108 1.6192
                      CHANNELS 3 Zrotation Xrotation Yrotation
                      End Site
                      {
                        OFFSET -1.6527 -0.5689 1.1317
                      }
                    }
                  }
                }
              }
            }
          }
        }
      }
    }
  }
  JOINT RightUpLeg
  {
    OFFSET -9.1966 3.8861 -0.7581
    CHANNELS 3 Zrotation Xrotation Yrotation
    JOINT RightLeg
    {
      OFFSET -0.7359 -41.0265 0
      CHANNELS 3 Zrotation Xrotation Yrotation
      JOINT RightFoot
      {
        OFFSET 0 -40.2855 0
        CHANNELS 3 Zrotation Xrotation Yrotation
        JOINT RightToeBase
        {
          OFFSET 0 -5.6122 11.7359
          CHANNELS 3 Zrotation Xrotation Yrotation
          End Site
          {
            OFFSET 0 0 7.8731
          }
        }
      }
    }
  }
  JOINT LeftUpLeg
  {
    OFFSET 9.1965 3.8864 -0.7581
    CHANNELS 3 Zrotation Xrotation Yrotation
    JOINT LeftLeg
    {
      OFFSET 0.7359 -41.0268 0
      CHANNELS 3 Zrotation Xrotation Yrotation
      JOINT LeftFoot
      {
        OFFSET 0 -40.2855 0
        CHANNELS 3 Zrotation Xrotation Yrotation
        JOINT LeftToeBase
        {
          OFFSET 0 -5.6122 11.7359
          CHANNELS 3 Zrotation Xrotation Yrotation
          End Site
          {
            OFFSET 0 0 7.8731
          }
        }
      }
    }
  }
}
MOTION
Frames:	6
Frame Time:	0.0333333
5.84602e-005 68.8428 3.50346 0 0 -0 0 0 -0 0 0 -0 0 0 -0 0 0 -0 0 0 -0 0 0 -0 0 0 -0 0 0 -0 0 0 -0 0 0 -0 0 0 -0 0 0 -0 0 0 -0 -0.0146107 -8.87603e-005 -2.63497e-007 2.99804e-018 -2.42657e-020 -1.42182e-022 0 0 -0 -0.0187562 -0.001176 5.858e-005 5.06224e-018 3.88251e-019 1.21329e-020 0 0 -0 -0.012269 -0.00324817 0.000675346 -1.74678e-018 3.88251e-019 -0 0 0 -0 0 0 -0 0 0 -0 0 0 -0 0 0 -0 0 0 -0 0 0 -0 0 0 -0 0 0 -0 0 0 -0 0 0 -0 0.0149955 -9.10982e-005 2.64101e-007 -9.69331e-018 1.21329e-020 -4.7394e-023 0 0 -0 0.0189956 -0.00119102 -5.96516e-005 -5.41541e-019 0 2.42657e-020 0 0 -0 0.0122698 -0.00324857 -0.000673756 -2.00796e-019 0 -1.94126e-019 0 0 -0 0 0 -0 0 0 -0 3.39842 1.33031 -0.0637918 -5.65207e-008 0.834868 -0.000436188 -3.39935 -2.16518 -0.0642563 -8.89002e-024 -1.18485e-023 -1.48106e-024 -3.39844 1.35642 0.0640283 -3.18788e-007 0.782166 -0.000588827 3.39931 -2.13858 0.0634662 1.1399e-023 0 -0 
-0.00599718 67.8913 1.77987 0 17.3364 -0 -0.266007 6.62105 -0.188974 -0.515072 13.2429 -0.350305 -0.515072 13.2429 -0.350305 -4.30711e-007 7.26416 1.39539e-006 -1.89377e-007 18.6874 -1.96283e-008 3.30961 -1.88973 3.85983 -82.7786 -2.06349 1.47381 -24.0679 5.65066 0.129473 1.43561 2.33719 -30.6633 -3.97569e-016 1.59028e-015 3.18055e-015 -1.98785e-015 1.59028e-015 -0 -2.78299e-015 3.18055e-015 -0 -3.97569e-016 1.59028e-015 3.18055e-015 -0.014611 -8.7761e-005 -9.19835e-007 -7.95139e-016 -4.77083e-015 -0 -3.97569e-016 1.59028e-015 3.18055e-015 -0.0187436 -0.00117589 5.96358e-005 3.19751e-006 -6.94107e-007 2.0568e-007 -3.97569e-016 1.59028e-015 3.18055e-015 -0.0123092 -0.00326111 0.000677152 -3.57812e-015 6.36111e-015 -0 -3.97569e-016 1.59028e-015 3.18055e-015 -1.98785e-015 1.59028e-015 -0 -2.78299e-015 3.18055e-015 -0 11.5475 -1.29364 8.28138 57.6402 27.2667 34.5233 2.76582 4.74552 39.2952 7.9496 -20.5889 8.47535 9.55351e-008 1.9206e-007 -3.69041e-007 3.26281e-006 5.8217e-007 -4.35102e-007 -4.77083e-015 9.54166e-015 1.59028e-015 9.55351e-008 1.9206e-007 -3.69041e-007 0.0150018 -9.06336e-005 -2.6483e-007 7.95139e-016 -6.36111e-015 -3.18055e-015 9.55351e-008 1.9206e-007 -3.69041e-007 0.0189887 -0.00119078 -6.07566e-005 6.36111e-015 -6.36111e-015 -4.77083e-015 9.55351e-008 1.9206e-007 -3.69041e-007 0.012309 -0.00325917 -0.000678463 0 9.54166e-015 -0 9.55351e-008 1.9206e-007 -3.69041e-007 3.26281e-006 5.8217e-007 -4.35102e-007 -4.77083e-015 9.54166e-015 1.59028e-015 1.0329 -13.6084 -14.9887 -145.895 78.0708 143.704 13.0796 29.5317 -15.3386 -1.20899e-007 2.12964e-006 8.61951e-007 -0.842333 -13.9888 14.71 121.759 81.219 -120.206 -36.5953 56.9065 57.0066 1.94453e-007 -3.58672e-007 1.64453e-006 
-0.00547455 67.9204 1.48472 0 17.5501 -0 -0.254736 5.31443 -0.17427 -0.496381 10.6296 -0.326814 -0.496382 10.6296 -0.326814 -8.23387e-006 6.22039 5.48666e-006 -1.31389e-007 16.0042 -1.18301e-007 3.60414 1.31255 3.99008 -77.9122 -1.94219 1.387 -23.4018 5.11124 0.129784 1.79354 2.95767 -28.775 1.2921e-014 -3.97569e-015 -0 1.16289e-014 -3.57812e-015 -3.18055e-015 1.22253e-014 -3.97569e-015 -3.18055e-015 1.2921e-014 -3.97569e-015 -0 -0.0145971 -8.80418e-005 6.35542e-007 -2.48481e-015 -7.95139e-016 -6.36111e-015 1.2921e-014 -3.97569e-015 -0 -0.0187397 -0.00117409 5.73902e-005 -2.98177e-016 1.19271e-015 -3.18055e-015 1.2921e-014 -3.97569e-015 -0 -0.0122964 -0.00325734 0.000676621 8.94531e-016 -3.97569e-016 -6.36111e-015 1.2921e-014 -3.97569e-015 -0 1.16289e-014 -3.57812e-015 -3.18055e-015 1.22253e-014 -3.97569e-015 -3.18055e-015 9.1441 -0.310149 7.58569 58.6735 27.1775 29.9935 2.76547 4.63728 36.9737 5.52896 -21.6609 5.77928 4.64417e-008 1.08748e-007 -1.77654e-007 3.31063e-006 -3.91144e-007 1.52289e-006 1.85767e-007 4.34992e-007 -7.10617e-007 4.64417e-008 1.08748e-007 -1.77654e-007 0.0150154 -9.13216e-005 2.90877e-006 1.85764e-007 4.34899e-007 -7.10675e-007 4.64417e-008 1.08748e-007 -1.77654e-007 0.0190003 -0.00119008 -5.49968e-005 1.85757e-007 4.34874e-007 -7.10691e-007 4.64417e-008 1.08748e-007 -1.77654e-007 0.0122998 -0.00325773 -0.000677093 2.37533e-006 5.10826e-007 -3.69332e-008 4.64417e-008 1.08748e-007 -1.77654e-007 3.31063e-006 -3.91144e-007 1.52289e-006 1.85767e-007 4.34992e-007 -7.10617e-007 1.23705 -14.537 -14.064 -126.852 82.1174 125.136 11.4997 27.7062 -14.1196 -3.71479e-007 -1.26935e-007 -7.577e-007 -1.0544 -14.8798 13.8042 89.782 83.0067 -88.5852 -29.026 55.4126 49.4253 5.56597e-015 -3.18055e-015 3.18055e-015 
-0.00552319 67.9008 1.09575 0 18.7162 -0 -0.253825 4.41672 -0.176049 -0.496213 8.83421 -0.333898 -0.496213 8.8342 -0.333898 -4.73032e-007 5.63716 1.04826e-006 -2.37341e-007 14.5058 2.01227e-007 4.05982 4.2554 4.30513 -77.9122 -1.9422 1.38701 -24.006 5.32765 0.128484 2.27713 3.63679 -28.7033 -7.69165e-008 -6.3499e-007 5.58158e-007 -1.53833e-007 -1.26998e-006 1.11632e-006 -7.69164e-008 -6.3499e-007 5.58158e-007 -7.69165e-008 -6.3499e-007 5.58158e-007 -0.014621 -8.81941e-005 1.8563e-006 -7.69044e-008 -6.35061e-007 5.58077e-007 -7.69165e-008 -6.3499e-007 5.58158e-007 -0.0187615 -0.00117864 6.00034e-005 -6.3022e-007 -3.50649e-008 1.49294e-007 -7.69165e-008 -6.3499e-007 5.58158e-007 -0.012267 -0.00324812 0.000677174 -7.68946e-008 -6.35047e-007 5.58091e-007 -7.69165e-008 -6.3499e-007 5.58158e-007 -1.53833e-007 -1.26998e-006 1.11632e-006 -7.69164e-008 -6.3499e-007 5.58158e-007 7.52427 0.556002 7.41413 62.0042 28.0013 27.9214 2.74562 4.66357 36.9753 3.7316 -23.7487 3.6433 6.31811e-008 1.67471e-007 -2.65426e-007 3.76167e-006 6.25979e-007 9.49885e-008 2.10604e-008 5.58236e-008 -8.84753e-008 6.31811e-008 1.67471e-007 -2.65426e-007 0.0150052 -9.0762e-005 7.25934e-007 2.10601e-008 5.5812e-008 -8.84826e-008 6.31811e-008 1.67471e-007 -2.65426e-007 0.0190107 -0.00118949 -5.92254e-005 2.10592e-008 5.5809e-008 -8.84848e-008 6.31811e-008 1.67471e-007 -2.65426e-007 0.0122627 -0.00324476 -0.000675337 2.11238e-006 1.86019e-008 3.68002e-007 6.31811e-008 1.67471e-007 -2.65426e-007 3.76167e-006 6.25979e-007 9.49885e-008 2.10604e-008 5.58236e-008 -8.84753e-008 1.16666 -16.1242 -14.2066 -129.153 81.8157 127.393 11.5087 27.704 -14.135 1.08625e-007 3.03075e-006 -5.10421e-007 -1.00151 -16.4725 13.9265 93.411 82.9477 -92.1673 -29.0494 55.4099 49.4506 2.03311e-006 5.21223e-007 -1.17516e-006 
-0.00557278 67.8845 0.706213 0 19.8832 -0 -0.252381 3.49472 -0.177609 -0.495272 6.99019 -0.340713 -0.495271 6.99018 -0.340713 -1.52017e-005 5.0543 3.97362e-006 -6.01643e-007 13.0054 4.60105e-008 4.50377 7.21568 4.59967 -77.9122 -1.9422 1.38702 -24.6082 5.55263 0.127187 2.76039 4.31679 -28.6373 -1.68967e-015 0 -3.18055e-015 -3.97569e-015 -1.98785e-016 -3.18055e-015 -4.57205e-015 7.95139e-016 -3.18055e-015 -1.68967e-015 0 -3.18055e-015 -0.0146089 -8.76236e-005 7.66728e-007 1.59028e-015 1.98785e-016 -0 -1.68967e-015 0 -3.18055e-015 -0.0187503 -0.00117558 5.68269e-005 -8.94531e-016 9.93923e-016 -3.18055e-015 -1.68967e-015 0 -3.18055e-015 -0.0123184 -0.00325987 0.000682176 5.43137e-007 -6.43087e-007 4.59323e-007 -1.68967e-015 0 -3.18055e-015 -3.97569e-015 -1.98785e-016 -3.18055e-015 -4.57205e-015 7.95139e-016 -3.18055e-015 5.90351 1.42834 7.26684 65.4097 28.7198 25.7713 2.72575 4.68985 36.977 1.8088 -25.7819 1.38806 -3.78328e-008 -1.14544e-007 1.7608e-007 -9.45821e-008 -2.86361e-007 4.402e-007 -7.56657e-008 -2.29089e-007 3.5216e-007 -3.78328e-008 -1.14544e-007 1.7608e-007 0.0149987 -9.06599e-005 8.55158e-007 -7.5665e-008 -2.29042e-007 3.5219e-007 -3.78328e-008 -1.14544e-007 1.7608e-007 0.0189913 -0.00119063 -5.89335e-005 -7.56614e-008 -2.2903e-007 3.52198e-007 -3.78328e-008 -1.14544e-007 1.7608e-007 0.0122172 -0.00323385 -0.000668674 -7.56541e-008 -2.29052e-007 3.52186e-007 -3.78328e-008 -1.14544e-007 1.7608e-007 -9.45821e-008 -2.86361e-007 4.402e-007 -7.56657e-008 -2.29089e-007 3.5216e-007 1.09227 -17.7135 -14.3527 -131.287 81.502 129.484 11.5178 27.7019 -14.1505 -1.85507e-007 -6.41416e-008 -3.78833e-007 -0.945315 -18.0674 14.0515 96.967 82.8612 -95.6763 -29.0727 55.4072 49.4759 -3.45128e-006 -1.23543e-006 3.19114e-007 
-0.00561665 67.8715 0.316222 0 21.0509 -0 -0.250388 2.55436 -0.178915 -0.493519 5.10951 -0.34716 -0.493519 5.10952 -0.34716 3.81508e-006 4.47062 -1.4461e-006 1.30311e-007 11.5037 -7.25748e-008 4.93737 10.1891 4.87422 -77.9122 -1.94218 1.38702 -25.2082 5.78627 0.125873 3.24351 4.99749 -28.577 -5.46658e-016 -7.95139e-016 1.59028e-015 2.48481e-016 -7.95139e-016 3.18055e-015 2.48481e-016 -1.19271e-015 3.18055e-015 -5.46658e-016 -7.95139e-016 1.59028e-015 -0.0145965 -8.97039e-005 -1.18717e-006 1.3418e-015 1.19271e-015 -0 -5.46658e-016 -7.95139e-016 1.59028e-015 -0.0187483 -0.00117448 5.90343e-005 -1.49089e-015 0 1.59028e-015 -5.46658e-016 -7.95139e-016 1.59028e-015 -0.0123061 -0.00325592 0.000681402 1.61016e-014 -2.98177e-015 -3.18055e-015 -5.46658e-016 -7.95139e-016 1.59028e-015 2.48481e-016 -7.95139e-016 3.18055e-015 2.48481e-016 -1.19271e-015 3.18055e-015 4.28194 2.30562 7.14407 68.8796 29.326 23.5533 2.70592 4.71612 36.9786 -0.244895 -27.7504 -0.992161 1.57223e-008 5.50378e-008 -8.20608e-008 1.78187e-008 6.23761e-008 -9.30022e-008 2.20113e-008 7.70529e-008 -1.14885e-007 1.57223e-008 5.50378e-008 -8.20608e-008 0.0149885 -8.98091e-005 7.48293e-007 2.20112e-008 7.70378e-008 -1.14895e-007 1.57223e-008 5.50378e-008 -8.20608e-008 0.0189819 -0.00118942 -5.90054e-005 2.201e-008 7.70339e-008 -1.14898e-007 1.57223e-008 5.50378e-008 -8.20608e-008 0.0122676 -0.00324963 -0.00067792 2.20076e-008 7.70407e-008 -1.14894e-007 1.57223e-008 5.50378e-008 -8.20608e-008 1.78187e-008 6.23761e-008 -9.30022e-008 2.20113e-008 7.70529e-008 -1.14885e-007 1.01371 -19.3043 -14.5024 -133.269 81.1775 131.422 11.5268 27.6998 -14.1661 1.85397e-007 6.44842e-008 3.7882e-007 -0.885633 -19.6639 14.1793 100.425 82.7484 -99.0871 -29.0962 55.4046 49.5014 -1.65442e-007 1.72365e-007 -8.13836e-007 
